<svg id="svg-preview" xmlns="http://www.w3.org/2000/svg" width="180" height="180" fill="none">
    <path id="SETTING_BG_COLOR" fill="#fff" d="M164 90c0 40.869-33.131 74-74 74-40.87 0-74-33.131-74-74 0-40.87 33.13-74 74-74 40.869 0 74 33.13 74 74Z"/>
    <path id="SETTING_PIP_COLOR_PRIMARY" fill="#000" fill-rule="evenodd" d="M157 89h5v2h-5v-2ZM89 23v-5h2v5h-2Zm0 139v-5h2v5h-2ZM18 89h5v2h-5v-2Zm120.083 47.669 3.536 3.535-1.414 1.415-3.536-3.536 1.414-1.414ZM39.795 38.381l3.536 3.536-1.414 1.414-3.536-3.536 1.414-1.414Zm3.535 99.702-3.535 3.536-1.414-1.414 3.536-3.536 1.414 1.414Zm98.289-98.288-3.536 3.536-1.414-1.415 3.535-3.535 1.415 1.414Z" clip-rule="evenodd"/>
    <g id="SETTING_PIP_COLOR_SECONDARY" fill="#AAA" fill-rule="evenodd" clip-rule="evenodd">
      <path d="m106.892 23.092.777-2.897 1.932.517-.777 2.898-1.932-.518ZM70.399 159.288l.776-2.898 1.932.518-.776 2.898-1.932-.518Zm53.235-129.544 1.5-2.598 1.732 1-1.5 2.598-1.732-1Zm-70.5 122.11 1.5-2.598 1.732 1-1.5 2.598-1.732-1ZM71.175 23.61l-.776-2.898 1.932-.517.776 2.897-1.932.518Zm36.494 136.195-.776-2.897 1.931-.518.777 2.898-1.932.517ZM54.634 30.744l-1.5-2.598 1.732-1 1.5 2.598-1.732 1Zm70.5 122.11-1.5-2.598 1.732-1 1.5 2.598-1.732 1Z"/>
      <path d="m54.634 30.744-1.5-2.598 1.732-1 1.5 2.598-1.732 1Zm70.5 122.11-1.5-2.598 1.732-1 1.5 2.598-1.732 1Zm-95.39-96.488-2.598-1.5 1-1.732 2.598 1.5-1 1.732Zm122.11 70.5-2.598-1.5 1-1.732 2.598 1.5-1 1.732ZM23.092 73.108l-2.897-.777.517-1.932 2.898.777-.518 1.931Zm136.196 36.493-2.898-.777.518-1.932 2.898.777-.518 1.932Zm-135.678-.776-2.898.776-.518-1.932 2.898-.776.518 1.932ZM159.805 72.33l-2.897.777-.518-1.932 2.898-.776.517 1.932ZM30.744 125.366l-2.598 1.5-1-1.732 2.598-1.5 1 1.732Zm122.11-70.5-2.598 1.5-1-1.732 2.598-1.5 1 1.732Z"/>
    </g>
    <path id="SETTING_RING_NIGHT_COLOR" fill="#05A" d="M.544 99.885a90 90 0 0 0 178.886.224l-16.037-1.812A73.86 73.86 0 0 1 40.689 144.99a73.86 73.86 0 0 1-24.103-46.878L.544 99.885Z"/>
    <path id="SETTING_RING_DAY_COLOR" fill="#05AAFF" d="M179.385 79.497A90.002 90.002 0 0 0 30.515 22.46 90 90 0 0 0 .685 78.92L16.7 80.906a73.861 73.861 0 0 1 146.655.473l16.029-1.883Z"/>
    <path id="SETTING_RING_SUNRISE_COLOR" fill="#FAA" d="M.555 80.018a90 90 0 0 0-.15 18.51l16.066-1.53a73.86 73.86 0 0 1 .124-15.19l-16.04-1.79Z"/>
    <path id="SETTING_RING_SUNSET_COLOR" fill="#FFAA01" d="M179.551 98.977a89.957 89.957 0 0 0-.122-19.096l-16.036 1.815a73.892 73.892 0 0 1 .1 15.671l16.058 1.61Z"/>
    <g id="SETTING_RING_STROKE_COLOR" fill="#000">
      <path d="M.797 78.047a90 90 0 0 0-.37 3.189l16.063 1.572c.085-.875.187-1.747.303-2.618L.797 78.047ZM.342 97.844c.094 1.066.206 2.13.337 3.192l16.017-1.979c-.107-.871-.2-1.745-.276-2.62L.342 97.844ZM179.59 81.416a92.206 92.206 0 0 0-.364-3.19l-16 2.111c.115.871.214 1.744.298 2.618l16.066-1.54Zm-.205 19.089a87.38 87.38 0 0 0 .317-3.194L163.617 96c-.072.875-.159 1.75-.261 2.622l16.029 1.883Z"/>
      <path fill-rule="evenodd" d="M90 161c39.212 0 71-31.788 71-71s-31.788-71-71-71-71 31.788-71 71 31.788 71 71 71Zm0 3c40.869 0 74-33.131 74-74 0-40.87-33.131-74-74-74-40.87 0-74 33.13-74 74 0 40.869 33.13 74 74 74Z" clip-rule="evenodd"/>
    </g>
    <path id="SETTING_TIME_COLOR" fill="#000" d="M41.646 74.832V69.54H52.23v21.168h5.292V96H41.646v-5.292h5.292V74.832h-5.292ZM61.506 96V69.54h18.522V96H61.506Zm5.292-21.168v15.876h7.938V74.832h-7.938ZM85.315 96v-5.292h5.292V96h-5.292Zm0-15.876v-5.292h5.292v5.292h-5.292Zm29.117-10.584V96H95.91v-5.292h13.23v-5.292H98.556v-5.292h10.584v-5.292H95.91V69.54h18.522ZM119.719 96V69.54h18.522V96h-18.522Zm13.23-10.584h-7.938v5.292h7.938v-5.292Zm-7.938-5.292h7.938v-5.292h-7.938v5.292Z"/>
    <path id="SETTING_SUN_FILL_COLOR" fill="#FFA" d="M69 13.5a8.5 8.5 0 1 1-17 0 8.5 8.5 0 0 1 17 0Z"/>
    <path id="SETTING_SUN_STROKE_COLOR" fill="#000" fill-rule="evenodd" d="M60.5 19a5.5 5.5 0 1 0 0-11 5.5 5.5 0 0 0 0 11Zm0 3a8.5 8.5 0 1 0 0-17 8.5 8.5 0 0 0 0 17Z" clip-rule="evenodd"/>
</svg>